<svg xmlns="http://www.w3.org/2000/svg" viewBox="0 0 962 962"><defs><style>.cls-1{fill:#fff;}</style></defs><title>Asset 1</title><g id="Layer_2" data-name="Layer 2"><g id="Layer_1-2" data-name="Layer 1"><path class="cls-1" d="M481,961.5A480.34,480.34,0,0,1,141.24,141.24,480.49,480.49,0,1,1,668,923.74,477.4,477.4,0,0,1,481,961.5Z"/><path d="M481,1A480.13,480.13,0,0,1,667.84,923.28,480.13,480.13,0,0,1,294.16,38.72,477,477,0,0,1,481,1m0-1C215.35,0,0,215.35,0,481S215.35,962,481,962,962,746.65,962,481,746.65,0,481,0Z"/></g></g></svg>