<?xml version="1.0" encoding="utf-8"?>
<!-- Generator: Adobe Illustrator 23.0.1, SVG Export Plug-In . SVG Version: 6.00 Build 0)  -->
<svg version="1.1" id="Layer_1" xmlns="http://www.w3.org/2000/svg" xmlns:xlink="http://www.w3.org/1999/xlink" x="0px" y="0px"
	 viewBox="0 0 1080 1080" enable-background="new 0 0 1080 1080" xml:space="preserve">
<g>
	<path d="M-735,15c70.9,0,139.6,13.9,204.4,41.3c62.5,26.4,118.7,64.3,166.9,112.5c48.2,48.2,86.1,104.4,112.5,166.9
		C-223.9,400.4-210,469.1-210,540s-13.9,139.6-41.3,204.4c-26.4,62.5-64.3,118.7-112.5,166.9c-48.2,48.2-104.4,86.1-166.9,112.5
		c-64.7,27.4-133.5,41.3-204.4,41.3s-139.6-13.9-204.4-41.3c-62.5-26.4-118.7-64.3-166.9-112.5c-48.2-48.2-86.1-104.4-112.5-166.9
		c-27.4-64.7-41.3-133.5-41.3-204.4s13.9-139.6,41.3-204.4c26.4-62.5,64.3-118.7,112.5-166.9c48.2-48.2,104.4-86.1,166.9-112.5
		C-874.6,28.9-805.9,15-735,15 M-735,14c-290.5,0-526,235.5-526,526s235.5,526,526,526s526-235.5,526-526S-444.5,14-735,14L-735,14z
		"/>
</g>
<path fill="#606060" d="M540,1065.5c-70.9,0-139.8-13.9-204.5-41.3c-62.6-26.5-118.8-64.4-167-112.6
	c-48.3-48.3-86.2-104.5-112.6-167C28.4,679.8,14.5,610.9,14.5,540s13.9-139.8,41.3-204.5c26.5-62.6,64.4-118.8,112.6-167
	c48.3-48.3,104.5-86.2,167-112.6C400.2,28.4,469.1,14.5,540,14.5s139.8,13.9,204.5,41.3c62.6,26.5,118.8,64.4,167,112.6
	c48.3,48.3,86.2,104.5,112.6,167c27.4,64.8,41.3,133.6,41.3,204.5s-13.9,139.8-41.3,204.5c-26.5,62.6-64.4,118.8-112.6,167
	c-48.3,48.3-104.5,86.2-167,112.6C679.8,1051.6,610.9,1065.5,540,1065.5z"/>
</svg>
