<svg xmlns="http://www.w3.org/2000/svg" width="885.065" height="885.065" viewBox="0 0 885.065 885.065">
  <g id="Path_323" data-name="Path 323" fill="none">
    <path d="M442.533,0c244.4,0,442.533,200.1,442.533,444.506S686.937,885.065,442.533,885.065,0,686.937,0,442.533,198.129,0,442.533,0Z" stroke="none"/>
    <path d="M 442.53271484375 1.99993896484375 C 427.5048217773438 1.99993896484375 412.3497009277344 2.76513671875 397.4883728027344 4.27447509765625 C 382.8425903320312 5.7618408203125 368.1261596679688 8.0078125 353.747802734375 10.9500732421875 C 339.5558471679688 13.85418701171875 325.3519287109375 17.50628662109375 311.5310668945312 21.8050537109375 C 297.8646850585938 26.05572509765625 284.2476196289062 31.03973388671875 271.0580444335938 36.618408203125 C 244.9551391601562 47.658935546875 219.7786865234375 61.32440185546875 196.22802734375 77.23480224609375 C 172.9005737304688 92.9945068359375 150.9644775390625 111.093505859375 131.029052734375 131.029052734375 C 111.093505859375 150.9644775390625 92.9945068359375 172.9005737304688 77.23480224609375 196.22802734375 C 61.32440185546875 219.7786865234375 47.658935546875 244.9551391601562 36.618408203125 271.0580444335938 C 31.03973388671875 284.2476196289062 26.05572509765625 297.8646850585938 21.8050537109375 311.5310668945312 C 17.50628662109375 325.3519287109375 13.85418701171875 339.5558471679688 10.9500732421875 353.747802734375 C 8.0078125 368.1261596679688 5.7618408203125 382.8425903320312 4.27447509765625 397.4883728027344 C 2.76513671875 412.3497009277344 1.99993896484375 427.5048217773438 1.99993896484375 442.53271484375 C 1.99993896484375 457.5606079101562 2.76513671875 472.7156066894531 4.27447509765625 487.5770568847656 C 5.7618408203125 502.2227172851562 8.0078125 516.9391479492188 10.9500732421875 531.3175048828125 C 13.85418701171875 545.5096435546875 17.50628662109375 559.71337890625 21.8050537109375 573.534423828125 C 26.05572509765625 587.20068359375 31.03973388671875 600.8177490234375 36.618408203125 614.0072631835938 C 47.658935546875 640.1101684570312 61.32440185546875 665.2867431640625 77.23480224609375 688.8372802734375 C 92.9945068359375 712.1647338867188 111.093505859375 734.100830078125 131.029052734375 754.036376953125 C 150.9644775390625 773.9718017578125 172.9005737304688 792.07080078125 196.22802734375 807.8305053710938 C 219.7786865234375 823.740966796875 244.9551391601562 837.4063720703125 271.0580444335938 848.4469604492188 C 284.2476196289062 854.025634765625 297.8646850585938 859.0095825195312 311.5310668945312 863.26025390625 C 325.3519287109375 867.5590209960938 339.5558471679688 871.211181640625 353.747802734375 874.1152954101562 C 368.1261596679688 877.0574951171875 382.8425903320312 879.303466796875 397.4883728027344 880.7908325195312 C 412.3497009277344 882.3001708984375 427.5048217773438 883.0653686523438 442.53271484375 883.0653686523438 C 457.5631713867188 883.0653686523438 472.7189331054688 882.3074951171875 487.5789489746094 880.8128051757812 C 502.2272644042969 879.3394775390625 516.9442749023438 877.1143798828125 531.321044921875 874.1994018554688 C 545.515625 871.3214111328125 559.7198486328125 867.7015991210938 573.5391845703125 863.44091796875 C 587.2077026367188 859.2266235351562 600.8250732421875 854.2848510742188 614.0126953125 848.7530517578125 C 640.1234130859375 837.8003540039062 665.2998046875 824.240966796875 688.8429565429688 808.451171875 C 712.1759033203125 792.80224609375 734.111572265625 774.824951171875 754.0407104492188 755.0186767578125 C 773.9796142578125 735.20263671875 792.0779418945312 713.3886108398438 807.8330688476562 690.1824951171875 C 823.7450561523438 666.7452392578125 837.409912109375 641.6757202148438 848.4479370117188 615.6700439453125 C 854.0267333984375 602.5263671875 859.0103759765625 588.9521484375 863.2607421875 575.3241577148438 C 867.5595092773438 561.5407104492188 871.2114868164062 547.3698120117188 874.115478515625 533.2053833007812 C 877.0576171875 518.85400390625 879.3035888671875 504.1588134765625 880.7909545898438 489.5280456542969 C 882.3001708984375 474.68115234375 883.0653686523438 459.5335998535156 883.0653686523438 444.5060424804688 C 883.0653686523438 429.4779357910156 882.3001708984375 414.3152770996094 880.7908325195312 399.4393920898438 C 879.3034057617188 384.7787170410156 877.057373046875 370.0410766601562 874.1151733398438 355.6357421875 C 871.2108154296875 341.4160766601562 867.5584716796875 327.1792602539062 863.2598266601562 313.32080078125 C 859.0087280273438 299.6160278320312 854.0245971679688 285.956298828125 848.4459228515625 272.7208251953125 C 837.40283203125 246.5206298828125 823.7369384765625 221.2373657226562 807.8279418945312 197.5732421875 C 792.063720703125 174.12451171875 773.9641723632812 152.0662841796875 754.0320434570312 132.0113525390625 C 734.0900268554688 111.9465942382812 712.1535034179688 93.7259521484375 688.8317260742188 77.85546875 C 665.2736206054688 61.82415771484375 640.09716796875 48.05303955078125 614.0018310546875 36.92437744140625 C 600.8104858398438 31.298828125 587.1937255859375 26.272705078125 573.5297241210938 21.9857177734375 C 559.70703125 17.64892578125 545.5036010742188 13.96429443359375 531.3140869140625 11.0340576171875 C 516.9342041015625 8.0645751953125 502.21826171875 5.7977294921875 487.5751647949219 4.29638671875 C 472.7123718261719 2.7725830078125 457.5579223632812 1.99993896484375 442.53271484375 1.99993896484375 M 442.53271484375 -6.103515625e-05 C 686.9367065429688 -6.103515625e-05 885.0653686523438 200.10205078125 885.0653686523438 444.5060424804688 C 885.0653686523438 688.91015625 686.9367065429688 885.0653686523438 442.53271484375 885.0653686523438 C 198.1286010742188 885.0653686523438 -6.103515625e-05 686.9367065429688 -6.103515625e-05 442.53271484375 C -6.103515625e-05 198.1286010742188 198.1286010742188 -6.103515625e-05 442.53271484375 -6.103515625e-05 Z" stroke="none"/>
  </g>
</svg>
